<?xml version="1.0" encoding="UTF-8" standalone="no"?>
<!-- Created with Inkscape (http://www.inkscape.org/) -->

<svg
   width="61.647923mm"
   height="25.400002mm"
   viewBox="0 0 61.647923 25.400002"
   version="1.1"
   id="svg2177"
   inkscape:version="1.2.2 (b0a8486541, 2022-12-01)"
   sodipodi:docname="textures.svg"
   inkscape:export-filename="textures.png"
   inkscape:export-xdpi="96"
   inkscape:export-ydpi="96"
   xmlns:inkscape="http://www.inkscape.org/namespaces/inkscape"
   xmlns:sodipodi="http://sodipodi.sourceforge.net/DTD/sodipodi-0.dtd"
   xmlns="http://www.w3.org/2000/svg"
   xmlns:svg="http://www.w3.org/2000/svg">
  <sodipodi:namedview
     id="namedview2179"
     pagecolor="#ffffff"
     bordercolor="#999999"
     borderopacity="1"
     inkscape:showpageshadow="0"
     inkscape:pageopacity="0"
     inkscape:pagecheckerboard="0"
     inkscape:deskcolor="#d1d1d1"
     inkscape:document-units="mm"
     showgrid="false"
     inkscape:zoom="3.4565746"
     inkscape:cx="145.80909"
     inkscape:cy="42.672304"
     inkscape:window-width="1366"
     inkscape:window-height="721"
     inkscape:window-x="0"
     inkscape:window-y="0"
     inkscape:window-maximized="1"
     inkscape:current-layer="layer1" />
  <defs
     id="defs2174" />
  <g
     inkscape:label="Capa 1"
     inkscape:groupmode="layer"
     id="layer1">
    <g
       id="g2968"
       transform="translate(10.61989,-50.516477)"
       inkscape:export-filename="textures.png"
       inkscape:export-xdpi="96"
       inkscape:export-ydpi="96">
      <path
         fill="#107dab"
         stroke-linecap="round"
         stroke-linejoin="round"
         d="M 6.8426095,58.98314 H 22.71761 c 0.149934,0 0.277818,0.05292 0.383646,0.15875 0.09702,0.09701 0.145521,0.220491 0.145521,0.370417 v 7.408333 c 0,0.149934 -0.0485,0.277818 -0.145521,0.383646 -0.105828,0.09702 -0.233712,0.145521 -0.383646,0.145521 H 6.8426095 c -0.149931,0 -0.273402,-0.0485 -0.370416,-0.145521 -0.105834,-0.105828 -0.15875,-0.233712 -0.15875,-0.383646 v -7.408333 c 0,-0.149934 0.05292,-0.27341 0.15875,-0.370417 0.09701,-0.105833 0.220482,-0.15875 0.370416,-0.15875 z m 0,0.529167 V 66.92064 H 22.71761 v -7.408333 z"
         id="path146"
         style="stroke-width:0.264583" />
      <path
         fill="#7acff3"
         stroke-linecap="round"
         stroke-linejoin="round"
         d="m 8.4301095,61.099807 -1.5875,-1.5875 H 22.71761 l -1.5875,1.5875 z"
         id="path148"
         style="stroke-width:0.264583" />
      <path
         fill="#34b6ed"
         stroke-linecap="round"
         stroke-linejoin="round"
         d="m 6.8426095,59.512307 1.5875,1.5875 v 4.233333 l -1.5875,1.5875 z m 14.2875005,1.5875 1.5875,-1.5875 v 7.408333 l -1.5875,-1.5875 z"
         id="path150"
         style="stroke-width:0.264583" />
      <path
         fill="#14a5e2"
         stroke-linecap="round"
         stroke-linejoin="round"
         d="m 6.8426095,66.92064 1.5875,-1.5875 H 21.13011 l 1.5875,1.5875 z"
         id="path152"
         style="stroke-width:0.264583" />
      <path
         fill="#4abff0"
         stroke-linecap="round"
         stroke-linejoin="round"
         d="M 8.4301095,65.33314 V 61.099807 H 21.13011 v 4.233333 z"
         id="path154"
         style="stroke-width:0.264583" />
    </g>
    <g
       id="g2961"
       transform="translate(10.61989,-45.224807)">
      <path
         fill="#6a8921"
         stroke-linecap="round"
         stroke-linejoin="round"
         d="M 6.8426095,45.224807 H 22.71761 c 0.149934,0 0.277818,0.05292 0.383646,0.15875 0.09702,0.09701 0.145521,0.220483 0.145521,0.370417 v 7.408333 c 0,0.149931 -0.0485,0.277812 -0.145521,0.383646 -0.105828,0.09701 -0.233712,0.145521 -0.383646,0.145521 H 6.8426095 c -0.149931,0 -0.273402,-0.04851 -0.370416,-0.145521 -0.105834,-0.105834 -0.15875,-0.233715 -0.15875,-0.383646 v -7.408333 c 0,-0.149932 0.05292,-0.273402 0.15875,-0.370417 0.09701,-0.105833 0.220482,-0.15875 0.370416,-0.15875 z M 22.71761,45.753974 H 6.8426095 v 7.408333 H 22.71761 Z"
         id="path166"
         style="stroke-width:0.264583" />
      <path
         fill="#95c02e"
         stroke-linecap="round"
         stroke-linejoin="round"
         d="m 6.8426095,45.753974 1.5875,1.5875 v 4.233333 l -1.5875,1.5875 z m 14.2875005,1.5875 1.5875,-1.5875 v 7.408333 l -1.5875,-1.5875 z"
         id="path168"
         style="stroke-width:0.264583" />
      <path
         fill="#b3d85a"
         stroke-linecap="round"
         stroke-linejoin="round"
         d="m 8.4301095,47.341474 -1.5875,-1.5875 H 22.71761 l -1.5875,1.5875 z"
         id="path170"
         style="stroke-width:0.264583" />
      <path
         fill="#9fce31"
         stroke-linecap="round"
         stroke-linejoin="round"
         d="M 8.4301095,47.341474 H 21.13011 v 4.233333 H 8.4301095 Z"
         id="path172"
         style="stroke-width:0.264583" />
      <path
         fill="#85ac28"
         stroke-linecap="round"
         stroke-linejoin="round"
         d="m 6.8426095,53.162307 1.5875,-1.5875 H 21.13011 l 1.5875,1.5875 z"
         id="path174"
         style="stroke-width:0.264583" />
    </g>
    <g
       id="g2954"
       transform="translate(-6.3134435,-14.53314)">
      <path
         fill="#a78503"
         stroke-linecap="round"
         stroke-linejoin="round"
         d="m 23.246777,31.99564 v 7.408334 c 0,0.149931 -0.0485,0.277812 -0.145521,0.383646 -0.105828,0.09701 -0.233712,0.14552 -0.383646,0.14552 H 6.8426095 c -0.149931,0 -0.273402,-0.04851 -0.370416,-0.14552 -0.105834,-0.105834 -0.15875,-0.233715 -0.15875,-0.383646 V 31.99564 c 0,-0.149931 0.05292,-0.273401 0.15875,-0.370416 0.09701,-0.105834 0.220482,-0.15875 0.370416,-0.15875 H 22.71761 c 0.149934,0 0.277818,0.05292 0.383646,0.15875 0.09702,0.09701 0.145521,0.220482 0.145521,0.370416 z M 22.71761,39.403974 V 31.99564 H 6.8426095 v 7.408334 z"
         id="path186"
         style="stroke-width:0.264583" />
      <path
         fill="#ffcc00"
         stroke-linecap="round"
         stroke-linejoin="round"
         d="m 21.13011,33.58314 v 4.233334 H 8.4301095 V 33.58314 Z"
         id="path188"
         style="stroke-width:0.264583" />
      <path
         fill="#e3b602"
         stroke-linecap="round"
         stroke-linejoin="round"
         d="M 21.13011,37.816474 V 33.58314 l 1.5875,-1.5875 v 7.408334 z M 8.4301095,33.58314 v 4.233334 l -1.5875,1.5875 V 31.99564 Z"
         id="path190"
         style="stroke-width:0.264583" />
      <path
         fill="#caa202"
         stroke-linecap="round"
         stroke-linejoin="round"
         d="m 21.13011,37.816474 1.5875,1.5875 H 6.8426095 l 1.5875,-1.5875 z"
         id="path192"
         style="stroke-width:0.264583" />
      <path
         fill="#fedb4e"
         stroke-linecap="round"
         stroke-linejoin="round"
         d="m 22.71761,31.99564 -1.5875,1.5875 H 8.4301095 l -1.5875,-1.5875 z"
         id="path194"
         style="stroke-width:0.264583" />
    </g>
    <g
       id="g2947"
       transform="translate(-6.3134435,-9.2414727)">
      <path
         fill="#8e0b0b"
         stroke-linecap="round"
         stroke-linejoin="round"
         d="m 23.246777,18.237307 v 7.408334 c 0,0.149931 -0.0485,0.277812 -0.145521,0.383645 -0.105828,0.09701 -0.233712,0.145521 -0.383646,0.145521 H 6.8426095 c -0.149931,0 -0.273402,-0.04851 -0.370416,-0.145521 -0.105834,-0.105833 -0.15875,-0.233714 -0.15875,-0.383645 v -7.408334 c 0,-0.149931 0.05292,-0.273401 0.15875,-0.370416 0.09701,-0.105834 0.220482,-0.15875 0.370416,-0.15875 H 22.71761 c 0.149934,0 0.277818,0.05292 0.383646,0.15875 0.09702,0.09702 0.145521,0.220485 0.145521,0.370416 z M 22.71761,25.645641 V 18.237307 H 6.8426095 v 7.408334 z"
         id="path196"
         style="stroke-width:0.264583" />
      <path
         fill="#f23737"
         stroke-linecap="round"
         stroke-linejoin="round"
         d="m 21.13011,19.824807 v 4.233334 H 8.4301095 v -4.233334 z"
         id="path198"
         style="stroke-width:0.264583" />
      <path
         fill="#de1010"
         stroke-linecap="round"
         stroke-linejoin="round"
         d="m 21.13011,24.058141 v -4.233334 l 1.5875,-1.5875 v 7.408334 z M 8.4301095,19.824807 v 4.233334 l -1.5875,1.5875 v -7.408334 z"
         id="path200"
         style="stroke-width:0.264583" />
      <path
         fill="#be0e0e"
         stroke-linecap="round"
         stroke-linejoin="round"
         d="m 21.13011,24.058141 1.5875,1.5875 H 6.8426095 l 1.5875,-1.5875 z"
         id="path202"
         style="stroke-width:0.264583" />
      <path
         fill="#f47171"
         stroke-linecap="round"
         stroke-linejoin="round"
         d="m 22.71761,18.237307 -1.5875,1.5875 H 8.4301095 l -1.5875,-1.5875 z"
         id="path204"
         style="stroke-width:0.264583" />
    </g>
    <g
       id="g2975"
       transform="translate(10.61989,-55.808147)">
      <path
         fill="#dddddd"
         stroke-linecap="round"
         stroke-linejoin="round"
         d="m 8.4301095,74.85814 -1.5875,-1.5875 H 22.71761 l -1.5875,1.5875 z"
         id="path226"
         style="stroke-width:0.264583" />
      <path
         fill="#bbbbbb"
         stroke-linecap="round"
         stroke-linejoin="round"
         d="m 6.8426095,73.27064 1.5875,1.5875 v 4.233333 l -1.5875,1.5875 z m 14.2875005,1.5875 1.5875,-1.5875 v 7.408333 l -1.5875,-1.5875 z"
         id="path228"
         style="stroke-width:0.264583" />
      <path
         fill="#777777"
         stroke-linecap="round"
         stroke-linejoin="round"
         d="m 6.8426095,73.27064 v 7.408333 H 22.71761 V 73.27064 Z m 0,-0.529167 H 22.71761 c 0.149934,0 0.277818,0.05292 0.383646,0.15875 0.09702,0.09701 0.145521,0.220491 0.145521,0.370417 v 7.408333 c 0,0.149934 -0.0485,0.277818 -0.145521,0.383646 -0.105828,0.09702 -0.233712,0.145521 -0.383646,0.145521 H 6.8426095 c -0.149931,0 -0.273402,-0.0485 -0.370416,-0.145521 -0.105834,-0.105828 -0.15875,-0.233712 -0.15875,-0.383646 V 73.27064 c 0,-0.149934 0.05292,-0.27341 0.15875,-0.370417 0.09701,-0.105833 0.220482,-0.15875 0.370416,-0.15875 z"
         id="path230"
         style="stroke-width:0.264583" />
      <path
         fill="#a6a6a6"
         stroke-linecap="round"
         stroke-linejoin="round"
         d="m 6.8426095,80.678973 1.5875,-1.5875 H 21.13011 l 1.5875,1.5875 z"
         id="path232"
         style="stroke-width:0.264583" />
      <path
         fill="#cccccc"
         stroke-linecap="round"
         stroke-linejoin="round"
         d="M 8.4301095,79.091473 V 74.85814 H 21.13011 v 4.233333 z"
         id="path234"
         style="stroke-width:0.264583" />
    </g>
    <g
       id="g2940"
       transform="translate(-6.3134435,-3.9498064)">
      <path
         fill="#583d65"
         stroke-linecap="round"
         stroke-linejoin="round"
         d="m 23.101256,4.1085572 c 0.09702,0.09701 0.145521,0.220487 0.145521,0.370417 v 7.4083338 c 0,0.14993 -0.0485,0.277811 -0.145521,0.383645 -0.105828,0.09701 -0.233712,0.145521 -0.383646,0.145521 H 6.8426095 c -0.149931,0 -0.273402,-0.04851 -0.370416,-0.145521 -0.105834,-0.105834 -0.15875,-0.233715 -0.15875,-0.383645 V 4.4789742 c 0,-0.14993 0.05292,-0.273403 0.15875,-0.370417 0.09701,-0.105833 0.220482,-0.15875 0.370416,-0.15875 H 22.71761 c 0.149934,0 0.277818,0.05292 0.383646,0.15875 z M 22.71761,11.887308 V 4.4789742 H 6.8426095 v 7.4083338 z"
         id="path246"
         style="stroke-width:0.264583" />
      <path
         fill="#624370"
         stroke-linecap="round"
         stroke-linejoin="round"
         d="m 21.13011,10.299808 1.5875,1.5875 H 6.8426095 l 1.5875,-1.5875 z"
         id="path248"
         style="stroke-width:0.264583" />
      <path
         fill="#79538a"
         stroke-linecap="round"
         stroke-linejoin="round"
         d="m 22.71761,11.887308 -1.5875,-1.5875 V 6.0664743 l 1.5875,-1.5875001 z m -14.2875005,-1.5875 -1.5875,1.5875 V 4.4789742 l 1.5875,1.5875001 z"
         id="path250"
         style="stroke-width:0.264583" />
      <path
         fill="#9b75ac"
         stroke-linecap="round"
         stroke-linejoin="round"
         d="m 22.71761,4.4789742 -1.5875,1.5875001 H 8.4301095 l -1.5875,-1.5875001 z"
         id="path252"
         style="stroke-width:0.264583" />
      <path
         fill="#835995"
         stroke-linecap="round"
         stroke-linejoin="round"
         d="M 21.13011,6.0664743 V 10.299808 H 8.4301095 V 6.0664743 Z"
         id="path254"
         style="stroke-width:0.264583" />
    </g>
    <g
       id="g2925"
       transform="translate(-46.658197,-21.166775)">
      <path
         fill="#9d0d0d"
         stroke-linecap="round"
         stroke-linejoin="round"
         d="m 84.506848,21.695946 h -0.582083 c -0.723194,0 -1.340557,0.255765 -1.852084,0.767292 l -0.06615,0.07937 c -0.458611,0.502708 -0.687917,1.102431 -0.687917,1.799166 0,0.732012 0.251354,1.353786 0.754062,1.865313 0.511527,0.520345 1.12889,0.780521 1.852084,0.780521 h 2.645833 v 0.529166 H 83.92476 c -0.873125,0 -1.613959,-0.313086 -2.2225,-0.939271 -0.608542,-0.61736 -0.912813,-1.362604 -0.912813,-2.235729 0,-0.829027 0.273402,-1.543404 0.820209,-2.143125 l 0.07937,-0.105833 c 0.335137,-0.335137 0.705551,-0.57767 1.11125,-0.727604 0.343958,-0.132292 0.71878,-0.198438 1.124479,-0.198438 h 2.645833 v 0.529167 z m -2.817812,0.396875 h 0.01323 z m 20.822704,-0.396875 v -0.529167 h 2.64584 c 0.4057,0 0.78053,0.06615 1.12448,0.198438 0.4057,0.149934 0.77171,0.392467 1.09802,0.727604 0.61735,0.617363 0.92604,1.367023 0.92604,2.248958 0,0.881946 -0.3131,1.631606 -0.93927,2.248959 -0.59972,0.617362 -1.33615,0.926041 -2.20927,0.926041 h -2.64584 v -0.529166 h 2.64584 c 0.72318,0 1.33613,-0.260176 1.83885,-0.780521 0.52035,-0.511527 0.78052,-1.133301 0.78052,-1.865313 0,-0.732012 -0.26017,-1.358193 -0.78052,-1.878541 -0.50271,-0.511527 -1.11564,-0.767292 -1.83885,-0.767292 h -0.56886 z m 4.85511,4.894792 0.0132,-0.01323 z"
         id="path482"
         style="stroke-width:0.264583" />
      <path
         fill="#de1010"
         stroke-linecap="round"
         stroke-linejoin="round"
         d="m 83.924765,21.695946 h 0.582083 c -0.687922,0.01765 -1.278826,0.27341 -1.772708,0.767292 l -0.06615,0.07937 c -0.45861,0.502708 -0.687917,1.102431 -0.687917,1.799166 h 4.590521 v 2.645834 h -2.645833 c -0.723194,0 -1.340557,-0.260176 -1.852084,-0.780521 -0.502708,-0.511527 -0.754062,-1.133301 -0.754062,-1.865313 0,-0.696735 0.229306,-1.296458 0.687917,-1.799166 l 0.06615,-0.07937 c 0.511527,-0.511527 1.12889,-0.767292 1.852083,-0.767292 z m 18.586975,5.291667 v -2.645834 h 4.60375 c 0,-0.732012 -0.26017,-1.358193 -0.78052,-1.878541 -0.48506,-0.49389 -1.06715,-0.749658 -1.74625,-0.767292 h 0.56886 c 0.72318,0 1.33613,0.255765 1.83885,0.767292 0.52035,0.520348 0.78052,1.146529 0.78052,1.878541 0,0.732012 -0.26017,1.353786 -0.78052,1.865313 -0.50271,0.520345 -1.11564,0.780521 -1.83885,0.780521 z"
         id="path484"
         style="stroke-width:0.264583" />
      <path
         fill="#d0d0d0"
         stroke-linecap="round"
         stroke-linejoin="round"
         d="m 86.570598,26.987613 v -2.645834 h 15.941142 v 2.645834 z"
         id="path486"
         style="stroke-width:0.264583" />
      <path
         fill="#f23737"
         stroke-linecap="round"
         stroke-linejoin="round"
         d="m 86.570598,24.341779 h -4.590521 c 0,-0.696735 0.229307,-1.296458 0.687917,-1.799166 l 0.06615,-0.07937 c 0.493889,-0.49389 1.084791,-0.749658 1.772708,-0.767292 h 2.06375 z m 15.941142,0 v -2.645833 h 2.07698 c 0.6791,0.01765 1.26119,0.27341 1.74625,0.767292 0.52035,0.520348 0.78052,1.146529 0.78052,1.878541 z"
         id="path488"
         style="stroke-width:0.264583" />
      <path
         fill="#aaaaaa"
         stroke-linecap="round"
         stroke-linejoin="round"
         d="m 86.570598,21.695946 v -0.529167 h 15.941142 v 0.529167 z m 0,5.820833 v -0.529166 h 15.941142 v 0.529166 z"
         id="path490"
         style="stroke-width:0.264583" />
      <path
         fill="#d9d9d9"
         stroke-linecap="round"
         stroke-linejoin="round"
         d="M 102.51174,24.341779 H 86.570598 v -2.645833 h 15.941142 z"
         id="path492"
         style="stroke-width:0.264583" />
    </g>
    <g
       id="g2933"
       transform="translate(-46.658197,-22.754274)">
      <path
         fill="#aaaaaa"
         stroke-linecap="round"
         stroke-linejoin="round"
         d="m 86.570598,29.633446 v -0.529167 h 15.954372 v 0.529167 z m 0,5.820833 v -0.529167 h 15.954372 v 0.529167 z"
         id="path494"
         style="stroke-width:0.264583" />
      <path
         fill="#107dab"
         stroke-linecap="round"
         stroke-linejoin="round"
         d="m 86.570598,29.104279 v 0.529167 h -2.06375 -0.582083 c -0.723194,0 -1.340557,0.255765 -1.852084,0.767292 l -0.06615,0.07937 c -0.458611,0.502708 -0.687917,1.102431 -0.687917,1.799166 0,0.732012 0.251354,1.353786 0.754062,1.865313 0.511527,0.520345 1.12889,0.78052 1.852084,0.78052 h 1.984375 0.661458 v 0.529167 H 83.92476 c -0.873125,0 -1.613959,-0.313087 -2.2225,-0.939271 -0.608542,-0.61736 -0.912813,-1.362604 -0.912813,-2.235729 0,-0.829027 0.273402,-1.543404 0.820209,-2.143125 l 0.07937,-0.105833 c 0.335137,-0.335137 0.705551,-0.57767 1.11125,-0.727604 0.343958,-0.132292 0.71878,-0.198438 1.124479,-0.198438 z m -4.881562,0.926042 h 0.01323 z m 20.835934,-0.396875 v -0.529167 h 2.64584 c 0.40569,0 0.78053,0.06615 1.12448,0.198438 0.40569,0.149934 0.77169,0.392467 1.09802,0.727604 l 0.0926,0.105833 c 0.54681,0.599721 0.82021,1.314098 0.82021,2.143125 0,0.87313 -0.30427,1.618377 -0.91281,2.235729 -0.60855,0.626184 -1.34938,0.939271 -2.2225,0.939271 h -2.64584 v -0.529167 h 0.66146 1.98438 c 0.7232,0 1.34056,-0.260175 1.85208,-0.78052 0.50271,-0.511527 0.75406,-1.133301 0.75406,-1.865313 0,-0.696735 -0.2293,-1.296458 -0.68791,-1.799166 l -0.0661,-0.07937 c -0.51152,-0.511527 -1.12888,-0.767292 -1.85208,-0.767292 h -0.58209 z m 4.86834,0.396875 h 0.0132 z"
         id="path496"
         style="stroke-width:0.264583" />
      <path
         fill="#4abff0"
         stroke-linecap="round"
         stroke-linejoin="round"
         d="M 86.570598,34.925112 H 85.90914 l -0.754063,-2.645833 h -3.175 c 0,-0.696735 0.229307,-1.296458 0.687917,-1.799166 l 0.06615,-0.07937 c 0.493889,-0.49389 1.084791,-0.749658 1.772708,-0.767292 h 2.06375 l -0.754062,2.645833 z m 16.708442,-2.645833 -0.75407,-2.645833 h 2.06375 c 0.68792,0.01765 1.27881,0.27341 1.77271,0.767292 l 0.0662,0.07937 c 0.45862,0.502708 0.68791,1.102431 0.68791,1.799166 h -3.175 l -0.75406,2.645833 h -0.66146 z"
         id="path498"
         style="stroke-width:0.264583" />
      <path
         fill="#14a5e2"
         stroke-linecap="round"
         stroke-linejoin="round"
         d="m 85.90914,34.925112 h -1.984375 c -0.723194,0 -1.340557,-0.260175 -1.852084,-0.78052 -0.502708,-0.511527 -0.754062,-1.133301 -0.754062,-1.865313 0,-0.696735 0.229306,-1.296458 0.687917,-1.799166 l 0.06615,-0.07937 c 0.511527,-0.511527 1.12889,-0.767292 1.852084,-0.767292 h 0.582083 c -0.687922,0.01765 -1.278826,0.27341 -1.772708,0.767292 l -0.06615,0.07937 c -0.45861,0.502708 -0.687917,1.102431 -0.687917,1.799166 h 3.175 z m 18.67958,-5.291666 h 0.58209 c 0.7232,0 1.34056,0.255765 1.85208,0.767292 l 0.0661,0.07937 c 0.45861,0.502708 0.68791,1.102431 0.68791,1.799166 0,0.732012 -0.25135,1.353786 -0.75406,1.865313 -0.51152,0.520345 -1.12888,0.78052 -1.85208,0.78052 h -1.98438 l 0.75406,-2.645833 h 3.175 c 0,-0.696735 -0.22929,-1.296458 -0.68791,-1.799166 l -0.0662,-0.07937 c -0.4939,-0.49389 -1.08479,-0.749658 -1.77271,-0.767292 z"
         id="path500"
         style="stroke-width:0.264583" />
      <path
         fill="#d9d9d9"
         stroke-linecap="round"
         stroke-linejoin="round"
         d="m 86.570598,29.633446 h 15.954372 l 0.75407,2.645833 H 85.816536 Z"
         id="path502"
         style="stroke-width:0.264583" />
      <path
         fill="#d0d0d0"
         stroke-linecap="round"
         stroke-linejoin="round"
         d="m 85.816536,32.279279 h 17.462504 l -0.75407,2.645833 H 86.570598 Z"
         id="path504"
         style="stroke-width:0.264583" />
    </g>
    <g
       id="g2911"
       transform="translate(-9.796219,-24.964899)">
      <path
         fill="#f7f7f7"
         stroke-linecap="round"
         stroke-linejoin="round"
         d="m 48.253406,39.173024 c 0.132292,0.132291 0.198438,0.291047 0.198438,0.47625 0,0.185203 -0.06615,0.339547 -0.198438,0.46302 -0.12347,0.132292 -0.277807,0.198438 -0.463021,0.198438 -0.176389,0 -0.330729,-0.06615 -0.46302,-0.198438 -0.132292,-0.123473 -0.198438,-0.277817 -0.198438,-0.46302 0,-0.185203 0.06615,-0.343959 0.198438,-0.47625 0.132291,-0.123471 0.286631,-0.185209 0.46302,-0.185209 0.185209,0 0.339548,0.06174 0.463021,0.185209 z"
         id="path506"
         style="stroke-width:0.264583" />
      <path
         fill="#eaeaea"
         stroke-linecap="round"
         stroke-linejoin="round"
         d="m 48.451844,39.649274 c 0,-0.185203 -0.06615,-0.343959 -0.198438,-0.47625 -0.12347,-0.123471 -0.277807,-0.185209 -0.463021,-0.185209 -0.176389,0 -0.330729,0.06174 -0.46302,0.185209 -0.132292,0.132291 -0.198438,0.291047 -0.198438,0.47625 0,0.185203 0.06615,0.339547 0.198438,0.46302 0.132291,0.132292 0.286631,0.198438 0.46302,0.198438 0.185209,0 0.339548,-0.06615 0.463021,-0.198438 0.132292,-0.123473 0.198438,-0.277817 0.198438,-0.46302 z m -2.024063,-1.415521 0.410104,-0.02646 0.423334,0.02646 c 0.47625,0.07055 0.895173,0.286633 1.256771,0.648229 0.326318,0.326321 0.537985,0.701146 0.635,1.124479 -0.09702,0.246944 -0.308682,0.467432 -0.635,0.661458 -0.458611,0.291042 -1.018646,0.436563 -1.680105,0.436563 -0.661458,0 -1.225901,-0.145521 -1.693333,-0.436563 -0.3175,-0.194026 -0.524756,-0.414514 -0.621771,-0.661458 0.09701,-0.423333 0.304271,-0.798158 0.621771,-1.124479 0.361598,-0.361596 0.789342,-0.577675 1.283229,-0.648229 z"
         id="path508"
         style="stroke-width:0.264583" />
      <path
         fill="#d9d9d9"
         stroke-linecap="round"
         stroke-linejoin="round"
         d="m 44.522781,40.006461 c 0.09701,0.246944 0.304271,0.467432 0.621771,0.661458 0.467432,0.291042 1.031875,0.436563 1.693333,0.436563 0.661459,0 1.221494,-0.145521 1.680105,-0.436563 0.326318,-0.194026 0.537985,-0.414514 0.635,-0.661458 l 0.06614,0.568854 c 0,0.661459 -0.233714,1.221494 -0.701145,1.680104 -0.458611,0.467432 -1.018646,0.701146 -1.680105,0.701146 -0.661458,0 -1.225901,-0.233714 -1.693333,-0.701146 -0.45861,-0.45861 -0.687916,-1.018645 -0.687916,-1.680104 0,-0.202845 0.02204,-0.392467 0.06614,-0.568854 z"
         id="path510"
         style="stroke-width:0.264583" />
      <path
         fill="#959595"
         stroke-linecap="round"
         stroke-linejoin="round"
         d="m 47.261219,38.233753 -0.423334,-0.03969 -0.410104,0.03969 c -0.493887,0.07055 -0.921631,0.286633 -1.283229,0.648229 -0.3175,0.326321 -0.524756,0.701146 -0.621771,1.124479 -0.0441,0.176387 -0.06614,0.366009 -0.06614,0.568854 0,0.661459 0.229306,1.221494 0.687916,1.680104 0.467432,0.467432 1.031875,0.701146 1.693333,0.701146 0.661459,0 1.221494,-0.233714 1.680105,-0.701146 0.467431,-0.45861 0.701145,-1.018645 0.701145,-1.680104 L 49.153,40.006461 c -0.09702,-0.423333 -0.308682,-0.798158 -0.635,-1.124479 -0.361598,-0.361596 -0.780521,-0.577675 -1.256771,-0.648229 z m -2.487084,0.277812 c 0.573265,-0.564441 1.261182,-0.846666 2.06375,-0.846666 0.811388,0 1.499307,0.282225 2.06375,0.846666 0.564444,0.564446 0.846667,1.252366 0.846667,2.06375 0,0.802569 -0.282223,1.486078 -0.846667,2.050521 -0.573264,0.573262 -1.261184,0.859896 -2.06375,0.859896 -0.811389,0 -1.499306,-0.282226 -2.06375,-0.846667 -0.564446,-0.564446 -0.846666,-1.252365 -0.846666,-2.06375 0,-0.802568 0.28222,-1.490485 0.846666,-2.06375 z m 4.1275,4.114271 -0.01323,0.01323 z"
         id="path512"
         style="stroke-width:0.264583" />
    </g>
    <g
       id="g2917"
       transform="translate(-11.912886,-24.964899)">
      <path
         fill="#1dadeb"
         stroke-linecap="round"
         stroke-linejoin="round"
         d="m 52.460281,40.006461 c -0.0441,0.176387 -0.06615,0.366009 -0.06615,0.568854 0,0.661459 0.229307,1.221494 0.687917,1.680104 0.467431,0.467432 1.031875,0.701146 1.693333,0.701146 0.661459,0 1.221494,-0.233714 1.680105,-0.701146 0.467431,-0.45861 0.701145,-1.018645 0.701145,-1.680104 l -0.06614,-0.568854 c -0.09701,-0.423333 -0.308682,-0.798158 -0.635,-1.124479 -0.361599,-0.361596 -0.780521,-0.577675 -1.256771,-0.648229 l -0.423334,-0.03969 -0.410104,0.03969 c -0.493887,0.07055 -0.921631,0.286633 -1.283229,0.648229 -0.3175,0.326321 -0.524756,0.701146 -0.621771,1.124479 z m -0.595312,0.568854 c 0,-0.802568 0.28222,-1.490485 0.846666,-2.06375 0.573265,-0.564441 1.261182,-0.846666 2.06375,-0.846666 0.811387,0 1.499307,0.282225 2.06375,0.846666 0.564444,0.564446 0.846667,1.252366 0.846667,2.06375 0,0.802569 -0.282223,1.486078 -0.846667,2.050521 -0.573264,0.573262 -1.261184,0.859896 -2.06375,0.859896 -0.811389,0 -1.499306,-0.282226 -2.06375,-0.846667 -0.564446,-0.564446 -0.846666,-1.252365 -0.846666,-2.06375 z m 4.974166,2.050521 -0.01323,0.01323 z"
         id="path514"
         style="stroke-width:0.264583" />
      <path
         fill="#7acff3"
         stroke-linecap="round"
         stroke-linejoin="round"
         d="m 52.394135,40.575315 c 0,-0.202845 0.02204,-0.392467 0.06615,-0.568854 0.09701,0.246944 0.304271,0.467432 0.621771,0.661458 0.467431,0.291042 1.031875,0.436563 1.693333,0.436563 0.661459,0 1.221494,-0.145521 1.680105,-0.436563 0.326318,-0.194026 0.537985,-0.414514 0.635,-0.661458 l 0.06614,0.568854 c 0,0.661459 -0.233714,1.221494 -0.701145,1.680104 -0.458611,0.467432 -1.018646,0.701146 -1.680105,0.701146 -0.661458,0 -1.225902,-0.233714 -1.693333,-0.701146 -0.45861,-0.45861 -0.687917,-1.018645 -0.687916,-1.680104 z"
         id="path516"
         style="stroke-width:0.264583" />
      <path
         fill="#a2ddf7"
         stroke-linecap="round"
         stroke-linejoin="round"
         d="m 57.09049,40.006461 c -0.09701,0.246944 -0.308682,0.467432 -0.635,0.661458 -0.458611,0.291042 -1.018646,0.436563 -1.680105,0.436563 -0.661458,0 -1.225902,-0.145521 -1.693333,-0.436563 -0.3175,-0.194026 -0.524756,-0.414514 -0.621771,-0.661458 0.09701,-0.423333 0.304271,-0.798158 0.621771,-1.124479 0.361598,-0.361596 0.789342,-0.577675 1.283229,-0.648229 l 0.410104,-0.02646 0.423334,0.02646 c 0.47625,0.07055 0.895172,0.286633 1.256771,0.648229 0.326318,0.326321 0.537985,0.701146 0.635,1.124479 z m -0.701146,-0.357187 c 0,-0.185203 -0.06615,-0.343959 -0.198438,-0.47625 -0.12347,-0.123471 -0.277807,-0.185209 -0.463021,-0.185209 -0.176389,0 -0.330729,0.06174 -0.46302,0.185209 -0.132292,0.132291 -0.198438,0.291047 -0.198438,0.47625 0,0.185203 0.06615,0.339547 0.198438,0.46302 0.132291,0.132292 0.286631,0.198438 0.46302,0.198438 0.185209,0 0.339548,-0.06615 0.463021,-0.198438 0.132292,-0.123473 0.198438,-0.277817 0.198438,-0.46302 z"
         id="path518"
         style="stroke-width:0.264583" />
      <path
         fill="#c0e9fa"
         stroke-linecap="round"
         stroke-linejoin="round"
         d="m 56.190906,39.173024 c 0.132292,0.132291 0.198438,0.291047 0.198438,0.47625 0,0.185203 -0.06615,0.339547 -0.198438,0.46302 -0.12347,0.132292 -0.277807,0.198438 -0.463021,0.198438 -0.176389,0 -0.330729,-0.06615 -0.46302,-0.198438 -0.132292,-0.123473 -0.198438,-0.277817 -0.198438,-0.46302 0,-0.185203 0.06615,-0.343959 0.198438,-0.47625 0.132291,-0.123471 0.286631,-0.185209 0.46302,-0.185209 0.185209,0 0.339548,0.06174 0.463021,0.185209 z"
         id="path520"
         style="stroke-width:0.264583" />
    </g>
  </g>
</svg>
